# xmcd CD database file
#
# Track frame offsets:
#	150
#	21104
#	58281
#	78324
#	103275
#	128327
#	158109
#	186654
#	213595
#	243197
#	256774
#
# Disc length: 3741 seconds
#
# Revision: 0
# Processed by: cddbd v1.5.2PL0 Copyright (c) Steve Scherf et al.
# Submitted via: CDex 1.70beta2
#
DISCID=940e9b0b
DTITLE=Jan Gunnar Hoff - Magma
DYEAR=2008
DGENRE=Jazz
TTITLE0=Magma
TTITLE1=Life
TTITLE2=Journey home
TTITLE3=Stone
TTITLE4=Maria's intro
TTITLE5=Winds
TTITLE6=Earth song
TTITLE7=Time
TTITLE8=Light years
TTITLE9=Karingana
TTITLE10=Ghiculo
EXTD=YEAR: 2008
EXTT0=
EXTT1=
EXTT2=
EXTT3=
EXTT4=
EXTT5=
EXTT6=
EXTT7=
EXTT8=
EXTT9=
EXTT10=
PLAYORDER=
